<svg id="svg" version="1.1" xmlns="http://www.w3.org/2000/svg" xmlns:xlink="http://www.w3.org/1999/xlink" width="400" height="400" viewBox="0, 0, 400,400"><g id="svgg"><path id="path0" d="M165.200 32.029 C 157.385 32.388,151.410 33.004,148.480 33.753 C 147.226 34.073,145.120 34.559,143.800 34.831 C 141.522 35.301,135.309 36.842,132.500 37.634 C 131.785 37.835,130.615 38.158,129.900 38.352 C 127.686 38.951,122.313 40.839,120.411 41.686 C 119.415 42.130,118.060 42.723,117.400 43.004 C 113.986 44.459,111.759 45.488,107.261 47.689 C 102.146 50.192,101.913 50.512,104.848 51.008 C 105.654 51.144,106.671 51.648,107.109 52.128 C 107.852 52.942,108.130 53.647,109.227 57.500 C 110.873 63.278,114.238 65.355,118.851 63.440 C 119.593 63.132,121.460 62.586,123.000 62.226 C 124.540 61.865,126.430 61.405,127.200 61.202 C 127.970 60.999,129.590 60.624,130.800 60.367 C 132.010 60.111,133.450 59.756,134.000 59.580 C 134.550 59.403,135.990 59.038,137.200 58.769 C 142.662 57.552,149.337 54.851,153.013 52.370 C 162.105 46.233,169.034 45.175,181.600 48.004 C 184.376 48.629,187.903 49.217,191.200 49.605 C 192.850 49.799,195.370 50.141,196.800 50.366 C 198.230 50.590,200.210 50.889,201.200 51.030 C 213.481 52.780,212.767 58.832,199.483 65.579 C 186.874 71.984,182.502 82.178,189.925 87.869 C 194.713 91.539,208.533 91.448,213.524 87.713 C 218.142 84.258,218.985 80.569,217.627 69.765 C 217.039 65.088,217.377 64.000,219.415 64.000 C 221.748 64.000,225.775 66.220,228.638 69.083 C 231.963 72.407,233.724 74.978,237.451 81.950 C 239.516 85.813,241.649 87.224,247.233 88.418 C 250.054 89.021,250.621 89.490,253.186 93.340 C 254.337 95.067,256.483 97.767,257.955 99.340 C 265.818 107.743,265.820 108.043,258.000 106.231 C 247.011 103.684,243.825 107.741,245.441 122.223 C 245.614 123.771,245.520 124.368,245.043 124.765 C 244.027 125.608,229.757 125.783,226.200 124.996 C 217.468 123.064,216.787 123.136,213.638 126.330 C 212.407 127.578,211.131 129.140,210.802 129.800 C 210.144 131.118,208.048 134.475,203.307 141.800 C 200.221 146.568,197.600 150.796,197.600 151.007 C 197.600 151.067,196.554 152.800,195.275 154.858 C 191.718 160.585,191.653 160.969,192.654 170.348 C 193.058 174.128,191.277 175.621,189.133 173.300 C 187.810 171.867,187.579 171.196,187.173 167.600 C 186.595 162.482,185.852 160.814,183.600 159.576 C 182.438 158.937,176.365 158.915,174.304 159.542 C 173.587 159.760,172.010 160.155,170.800 160.420 C 164.172 161.869,161.600 164.302,161.600 169.123 C 161.600 170.910,161.393 174.187,161.141 176.407 C 159.821 188.017,164.483 192.732,174.845 190.265 C 177.354 189.668,177.596 189.675,179.550 190.418 C 180.682 190.848,182.517 191.200,183.627 191.200 C 186.359 191.200,189.200 191.949,189.200 192.670 C 189.200 193.340,186.964 195.521,185.800 195.986 C 182.675 197.236,178.400 201.561,178.400 203.473 C 178.400 206.325,184.880 210.725,193.360 213.632 C 197.180 214.940,197.632 214.801,198.639 212.001 C 199.953 208.347,202.756 205.796,207.400 204.027 C 208.720 203.525,210.933 202.593,212.318 201.957 C 213.703 201.321,215.010 200.800,215.222 200.800 C 215.435 200.800,216.372 200.459,217.304 200.043 C 222.404 197.767,227.677 196.957,230.062 198.082 C 230.623 198.347,231.862 199.780,232.814 201.267 C 233.767 202.754,234.828 204.087,235.173 204.229 C 236.775 204.888,240.407 205.574,242.400 205.593 C 245.384 205.622,251.357 206.574,253.800 207.410 C 260.898 209.838,263.123 212.539,269.608 226.600 C 270.318 228.140,271.254 229.989,271.687 230.708 L 272.475 232.016 273.745 230.308 C 274.443 229.369,275.278 228.083,275.601 227.452 C 276.379 225.927,276.790 225.825,278.746 226.672 C 280.848 227.583,280.822 227.962,278.420 231.572 C 276.499 234.458,276.285 235.200,277.370 235.200 C 277.658 235.200,278.772 235.549,279.847 235.975 C 280.921 236.401,283.150 237.136,284.800 237.609 C 291.739 239.595,291.939 240.167,287.300 244.779 C 284.173 247.888,281.403 249.938,277.000 252.402 C 271.500 255.480,267.642 260.124,266.035 265.600 C 265.745 266.590,265.367 267.850,265.196 268.400 C 265.025 268.950,264.650 270.480,264.363 271.800 C 263.675 274.960,262.688 277.646,261.453 279.716 C 259.681 282.686,252.957 289.237,246.800 293.990 C 245.810 294.754,244.910 295.474,244.800 295.590 C 244.069 296.358,240.275 299.016,232.800 303.995 C 228.070 307.146,224.110 309.831,224.000 309.962 C 223.830 310.164,217.706 315.861,211.204 321.866 C 203.098 329.350,198.810 332.169,195.502 332.187 C 191.603 332.208,191.189 331.239,192.685 325.600 C 193.007 324.390,193.411 322.860,193.585 322.200 C 194.446 318.922,197.508 312.689,199.086 311.000 C 204.206 305.520,208.407 290.254,207.947 278.800 C 207.681 272.174,205.719 269.716,197.332 265.503 C 191.895 262.771,191.489 262.471,188.535 259.000 C 177.341 245.847,177.597 241.215,190.463 224.163 C 192.398 221.599,192.392 221.537,190.100 220.056 C 189.055 219.381,187.120 218.015,185.800 217.019 C 184.480 216.023,182.453 214.758,181.295 214.207 C 180.095 213.636,177.466 211.613,175.181 209.503 C 166.550 201.530,162.181 198.400,159.685 198.400 C 156.420 198.400,151.237 195.379,143.085 188.724 C 141.013 187.033,138.351 185.079,137.169 184.382 C 126.893 178.323,121.600 173.156,121.600 169.183 C 121.600 163.084,112.230 156.240,101.961 154.840 C 97.148 154.183,93.133 151.376,90.473 146.808 C 89.894 145.814,87.976 142.854,86.210 140.231 C 76.813 126.272,76.218 124.670,78.091 118.346 C 79.832 112.467,80.000 111.306,80.000 105.141 C 80.000 98.621,79.655 96.715,78.026 94.218 C 75.084 89.711,68.357 87.425,65.649 90.013 C 60.105 95.311,54.242 97.141,52.635 94.074 L 52.134 93.116 50.917 94.658 C 45.583 101.420,37.642 115.160,33.495 124.800 C 33.164 125.570,32.512 127.053,32.047 128.096 C 31.581 129.138,31.201 130.128,31.202 130.296 C 31.203 130.463,30.683 131.950,30.045 133.600 C 27.963 138.991,24.979 149.319,23.978 154.600 C 21.554 167.397,20.802 175.071,20.801 187.036 C 20.800 192.336,20.982 198.186,21.205 200.036 C 21.427 201.886,21.797 205.020,22.026 207.000 C 22.414 210.344,22.632 211.686,23.656 217.000 C 24.359 220.653,25.505 225.656,25.992 227.200 C 26.165 227.750,26.534 229.010,26.810 230.000 C 27.466 232.344,29.547 238.773,29.982 239.800 C 30.169 240.240,30.728 241.680,31.223 243.000 C 35.464 254.293,45.511 272.183,52.677 281.200 C 52.939 281.530,54.369 283.330,55.855 285.200 C 58.808 288.918,70.914 301.309,73.919 303.690 C 74.954 304.510,76.256 305.590,76.813 306.090 C 80.556 309.450,91.280 317.105,96.600 320.214 C 103.223 324.083,111.604 328.176,117.400 330.370 C 118.720 330.869,120.160 331.423,120.600 331.600 C 122.286 332.279,125.859 333.561,127.200 333.968 C 127.970 334.202,129.500 334.685,130.600 335.041 C 132.528 335.665,136.874 336.846,140.200 337.650 C 141.080 337.863,142.520 338.218,143.400 338.440 C 160.674 342.797,190.926 342.797,208.200 338.440 C 209.080 338.218,210.520 337.863,211.400 337.650 C 212.865 337.296,217.668 336.024,220.600 335.213 C 223.022 334.543,228.142 332.764,231.000 331.600 C 231.440 331.420,233.060 330.792,234.600 330.203 C 239.766 328.228,248.535 324.012,252.693 321.504 C 254.064 320.677,255.284 320.000,255.405 320.000 C 255.779 320.000,265.262 313.563,268.000 311.450 C 275.226 305.874,277.857 303.666,282.359 299.403 C 285.714 296.225,290.712 291.074,293.036 288.400 C 293.896 287.410,294.695 286.510,294.810 286.400 C 294.926 286.290,295.643 285.390,296.405 284.400 C 297.166 283.410,297.971 282.405,298.194 282.166 C 298.417 281.928,299.410 280.598,300.400 279.212 C 301.390 277.826,302.965 275.656,303.900 274.391 C 304.835 273.126,305.600 271.970,305.600 271.823 C 305.600 271.676,306.290 270.531,307.134 269.278 C 309.659 265.528,315.979 253.514,318.170 248.300 C 318.516 247.475,319.051 246.215,319.357 245.500 C 321.210 241.173,323.926 233.430,325.005 229.400 C 327.684 219.392,328.337 216.112,330.065 204.000 C 330.724 199.384,330.726 173.775,330.069 169.200 C 328.992 161.709,328.322 157.888,327.193 152.800 C 327.022 152.030,326.759 150.770,326.607 150.000 C 326.456 149.230,326.189 148.150,326.013 147.600 C 325.837 147.050,325.502 145.880,325.268 145.000 C 323.931 139.955,321.420 132.800,320.988 132.800 C 319.508 132.800,318.384 129.121,319.675 128.499 C 320.184 128.255,320.388 128.042,320.129 128.027 C 319.871 128.012,319.171 126.965,318.575 125.700 C 306.302 99.644,292.843 81.749,274.200 66.695 C 267.960 61.657,262.746 57.936,257.897 55.062 C 251.422 51.225,250.714 50.841,244.600 47.843 C 239.018 45.106,237.745 44.513,234.300 43.047 C 233.585 42.742,232.190 42.134,231.200 41.695 C 228.917 40.684,222.926 38.632,219.800 37.792 C 215.650 36.677,210.292 35.346,207.800 34.812 C 206.480 34.528,204.342 34.039,203.048 33.724 C 196.583 32.149,179.372 31.379,165.200 32.029 M316.702 132.500 C 317.857 134.681,317.866 134.638,316.100 135.466 C 312.440 137.183,304.567 142.027,303.899 142.974 C 303.614 143.377,300.800 140.601,300.800 139.917 C 300.800 138.962,313.999 130.835,315.601 130.804 C 315.711 130.802,316.207 131.565,316.702 132.500 M298.619 142.306 C 298.850 142.468,299.456 143.197,299.966 143.927 L 300.893 145.253 297.529 148.727 C 295.680 150.637,293.574 152.965,292.850 153.900 C 291.307 155.892,290.978 155.951,289.277 154.542 C 287.816 153.332,287.720 152.867,288.700 151.762 C 289.085 151.328,290.389 149.809,291.597 148.387 C 294.086 145.455,297.517 141.997,297.927 142.006 C 298.077 142.009,298.389 142.144,298.619 142.306 M286.856 156.700 C 289.373 158.738,289.335 158.596,287.991 160.905 C 287.320 162.057,286.397 163.810,285.941 164.800 C 283.809 169.422,283.200 170.856,283.200 171.256 C 283.200 171.743,280.705 171.391,279.472 170.732 C 278.457 170.189,278.738 169.227,281.610 163.400 C 285.399 155.714,285.492 155.596,286.856 156.700 M279.800 174.173 C 281.645 174.821,281.731 175.322,280.693 179.400 C 279.638 183.543,279.200 186.003,279.200 187.782 C 279.200 189.851,278.756 190.276,276.400 190.460 L 274.600 190.600 274.469 188.800 C 274.228 185.471,276.905 173.587,277.891 173.606 C 278.061 173.609,278.920 173.865,279.800 174.173 M307.194 178.100 C 307.186 180.211,306.932 180.619,305.160 181.359 C 303.284 182.143,299.983 184.662,298.555 186.400 C 297.923 187.170,297.224 187.993,297.003 188.229 C 296.781 188.466,296.240 189.329,295.800 190.147 C 294.947 191.734,294.566 191.791,291.900 190.738 C 287.719 189.085,300.259 176.806,306.500 176.441 C 307.064 176.408,307.199 176.730,307.194 178.100 M315.466 177.627 C 319.299 179.754,321.782 184.441,320.988 188.053 C 320.736 189.202,320.663 189.236,318.664 189.120 L 316.600 189.000 316.563 187.394 C 316.490 184.183,315.251 182.559,311.800 181.150 C 310.920 180.790,310.218 180.295,310.240 180.048 C 310.262 179.802,310.307 178.856,310.340 177.946 L 310.400 176.291 312.166 176.533 C 313.137 176.666,314.622 177.158,315.466 177.627 M317.900 192.395 C 320.434 192.405,317.878 197.245,312.626 202.381 L 310.805 204.162 309.402 202.802 C 307.594 201.049,307.625 200.787,309.930 198.433 C 310.991 197.349,312.559 195.447,313.413 194.206 C 314.649 192.413,315.135 191.995,315.784 192.170 C 316.233 192.290,317.185 192.392,317.900 192.395 M280.000 195.885 C 280.373 197.032,280.921 198.292,281.217 198.685 C 282.402 200.254,284.587 202.400,285.001 202.400 C 285.242 202.400,285.667 201.725,285.946 200.900 C 286.225 200.075,286.606 199.040,286.793 198.600 C 289.183 192.980,289.066 193.083,291.751 194.205 C 293.460 194.920,293.408 194.651,292.354 197.285 C 291.889 198.448,291.099 200.516,290.597 201.880 L 289.686 204.360 290.531 204.921 C 291.345 205.461,291.355 205.555,290.778 207.412 L 290.178 209.343 287.923 209.474 C 284.976 209.646,283.774 209.169,283.483 207.713 C 283.345 207.023,282.824 206.334,282.181 205.990 C 278.442 203.989,273.522 194.776,275.700 193.855 C 277.699 193.011,279.314 193.774,280.000 195.885 M306.681 204.478 C 308.392 206.136,308.415 206.077,305.500 207.505 C 300.900 209.760,293.600 210.923,293.600 209.401 C 293.600 207.469,294.527 205.600,295.486 205.600 C 297.287 205.600,300.980 204.579,302.800 203.577 C 304.032 202.899,305.373 203.210,306.681 204.478 M284.972 212.621 C 285.890 212.793,286.400 213.114,286.400 213.518 C 286.400 214.782,283.451 222.575,282.159 224.724 C 281.966 225.046,278.421 222.938,278.411 222.496 C 278.405 222.218,278.739 221.228,279.154 220.296 C 279.569 219.363,280.305 217.520,280.789 216.200 C 282.304 212.074,282.392 211.911,282.981 212.137 C 283.290 212.256,284.186 212.474,284.972 212.621 " stroke="none" fill="#44acfa" fill-rule="evenodd"></path><path id="path1" d="M165.800 46.857 C 162.164 47.708,160.875 48.133,158.400 49.298 C 156.970 49.972,154.810 51.182,153.600 51.989 C 149.263 54.881,142.962 57.485,137.200 58.769 C 135.990 59.038,134.550 59.403,134.000 59.580 C 133.450 59.756,132.010 60.111,130.800 60.367 C 129.590 60.624,127.970 60.999,127.200 61.202 C 126.430 61.405,124.540 61.865,123.000 62.226 C 121.460 62.586,119.593 63.132,118.851 63.440 C 114.271 65.341,110.843 63.253,109.264 57.600 C 107.709 52.037,107.293 51.499,104.003 50.801 L 101.651 50.301 98.725 52.001 C 97.116 52.936,95.206 54.040,94.481 54.454 C 81.739 61.734,64.037 77.490,54.620 89.934 C 48.796 97.631,57.639 97.668,65.683 89.980 C 68.357 87.425,75.105 89.742,78.026 94.218 C 79.655 96.715,80.000 98.621,80.000 105.141 C 80.000 111.306,79.832 112.467,78.091 118.346 C 76.218 124.670,76.813 126.272,86.210 140.231 C 87.976 142.854,89.894 145.814,90.473 146.808 C 93.133 151.376,97.148 154.183,101.961 154.840 C 112.230 156.240,121.600 163.084,121.600 169.183 C 121.600 173.156,126.893 178.323,137.169 184.382 C 138.351 185.079,141.013 187.033,143.085 188.724 C 151.237 195.379,156.420 198.400,159.685 198.400 C 162.181 198.400,166.550 201.530,175.181 209.503 C 177.466 211.613,180.095 213.636,181.295 214.207 C 182.453 214.758,184.480 216.023,185.800 217.019 C 187.120 218.015,189.055 219.381,190.100 220.056 C 192.392 221.537,192.398 221.599,190.463 224.163 C 177.599 241.213,177.342 245.848,188.535 259.000 C 191.489 262.471,191.895 262.771,197.332 265.503 C 205.719 269.716,207.681 272.174,207.947 278.800 C 208.407 290.254,204.206 305.520,199.086 311.000 C 197.508 312.689,194.446 318.922,193.585 322.200 C 193.411 322.860,193.007 324.390,192.685 325.600 C 191.189 331.239,191.603 332.208,195.502 332.187 C 198.810 332.169,203.098 329.350,211.204 321.866 C 217.706 315.861,223.830 310.164,224.000 309.962 C 224.110 309.831,228.070 307.146,232.800 303.995 C 240.275 299.016,244.069 296.358,244.800 295.590 C 244.910 295.474,245.810 294.754,246.800 293.990 C 252.957 289.237,259.681 282.686,261.453 279.716 C 262.688 277.646,263.675 274.960,264.363 271.800 C 264.650 270.480,265.025 268.950,265.196 268.400 C 265.367 267.850,265.745 266.590,266.035 265.600 C 267.642 260.124,271.500 255.480,277.000 252.402 C 281.403 249.938,284.173 247.888,287.300 244.779 C 291.939 240.167,291.741 239.598,284.800 237.606 C 283.150 237.132,280.900 236.409,279.800 236.000 C 276.166 234.646,276.214 234.643,274.959 236.290 C 273.273 238.501,269.497 242.001,268.802 241.997 C 268.471 241.995,267.796 241.249,267.302 240.339 L 266.404 238.685 269.428 235.520 C 271.091 233.779,272.395 232.230,272.326 232.077 C 272.257 231.925,271.323 230.000,270.250 227.800 C 269.178 225.600,267.655 222.450,266.866 220.800 C 261.544 209.668,255.189 205.717,242.400 205.593 C 240.407 205.574,236.775 204.888,235.173 204.229 C 234.828 204.087,233.767 202.754,232.814 201.267 C 231.862 199.780,230.623 198.347,230.062 198.082 C 227.677 196.957,222.404 197.767,217.304 200.043 C 216.372 200.459,215.435 200.800,215.222 200.800 C 215.010 200.800,213.703 201.321,212.318 201.957 C 210.933 202.593,208.720 203.525,207.400 204.027 C 202.756 205.796,199.953 208.347,198.639 212.001 C 197.632 214.801,197.180 214.940,193.360 213.632 C 184.880 210.725,178.400 206.325,178.400 203.473 C 178.400 201.561,182.675 197.236,185.800 195.986 C 186.964 195.521,189.200 193.340,189.200 192.670 C 189.200 191.949,186.359 191.200,183.627 191.200 C 182.517 191.200,180.682 190.848,179.550 190.418 C 177.596 189.675,177.354 189.668,174.845 190.265 C 164.483 192.732,159.821 188.017,161.141 176.407 C 161.393 174.187,161.600 170.910,161.600 169.123 C 161.600 164.302,164.172 161.869,170.800 160.420 C 172.010 160.155,173.587 159.760,174.304 159.542 C 176.365 158.915,182.438 158.937,183.600 159.576 C 185.852 160.814,186.595 162.482,187.173 167.600 C 187.579 171.196,187.810 171.867,189.133 173.300 C 191.277 175.621,193.058 174.128,192.654 170.348 C 191.653 160.969,191.718 160.585,195.275 154.858 C 196.554 152.800,197.600 151.067,197.600 151.007 C 197.600 150.796,200.221 146.568,203.307 141.800 C 208.048 134.475,210.144 131.118,210.802 129.800 C 211.131 129.140,212.407 127.578,213.638 126.330 C 216.787 123.136,217.468 123.064,226.200 124.996 C 229.757 125.783,244.027 125.608,245.043 124.765 C 245.520 124.368,245.614 123.771,245.441 122.223 C 243.825 107.741,247.011 103.684,258.000 106.231 C 265.820 108.043,265.818 107.743,257.955 99.340 C 256.483 97.767,254.337 95.067,253.186 93.340 C 250.621 89.490,250.054 89.021,247.233 88.418 C 241.649 87.224,239.516 85.813,237.451 81.950 C 233.724 74.978,231.963 72.407,228.638 69.083 C 225.775 66.220,221.748 64.000,219.415 64.000 C 217.377 64.000,217.039 65.088,217.627 69.765 C 218.985 80.569,218.142 84.258,213.524 87.713 C 208.533 91.448,194.713 91.539,189.925 87.869 C 182.502 82.178,186.874 71.984,199.483 65.579 C 212.767 58.832,213.481 52.780,201.200 51.030 C 200.210 50.889,198.230 50.590,196.800 50.366 C 195.370 50.141,192.850 49.799,191.200 49.605 C 187.903 49.217,184.376 48.629,181.600 48.004 C 174.491 46.404,169.337 46.029,165.800 46.857 M376.400 85.200 L 374.600 85.480 376.800 85.517 C 378.010 85.537,379.720 85.405,380.600 85.223 L 382.200 84.892 380.200 84.906 C 379.100 84.914,377.390 85.046,376.400 85.200 M389.700 85.725 C 390.965 86.917,391.049 87.557,390.167 89.264 C 389.819 89.937,389.705 90.382,389.915 90.253 C 391.556 89.239,391.312 86.105,389.520 85.169 C 388.718 84.750,388.742 84.822,389.700 85.725 M355.600 86.000 L 348.600 86.229 357.800 86.268 C 362.860 86.289,368.170 86.175,369.600 86.014 C 372.826 85.652,366.462 85.645,355.600 86.000 M313.809 86.785 C 313.588 87.143,333.552 86.905,333.967 86.545 C 334.058 86.465,329.614 86.400,324.090 86.400 C 318.084 86.400,313.952 86.555,313.809 86.785 M312.326 88.203 C 311.787 89.385,312.332 90.715,313.705 91.573 C 314.421 92.020,314.385 91.897,313.481 90.823 C 312.283 89.399,312.212 89.098,312.814 87.974 C 313.042 87.548,313.128 87.200,313.005 87.200 C 312.883 87.200,312.577 87.652,312.326 88.203 M314.800 92.153 C 314.800 92.263,315.880 93.184,317.200 94.200 C 318.520 95.216,319.600 95.957,319.600 95.847 C 319.600 95.737,318.520 94.816,317.200 93.800 C 315.880 92.784,314.800 92.043,314.800 92.153 M387.400 94.400 C 386.843 95.500,386.477 96.400,386.587 96.400 C 386.697 96.400,387.243 95.500,387.800 94.400 C 388.357 93.300,388.723 92.400,388.613 92.400 C 388.503 92.400,387.957 93.300,387.400 94.400 M320.000 96.141 C 320.000 96.320,327.354 102.245,328.400 102.908 C 328.730 103.117,328.370 102.723,327.600 102.032 C 325.782 100.399,320.000 95.917,320.000 96.141 M331.225 105.066 C 331.238 105.250,332.065 105.995,333.063 106.723 C 334.060 107.451,334.766 107.869,334.632 107.652 C 334.234 107.008,331.198 104.704,331.225 105.066 M379.861 109.461 C 379.036 111.129,378.436 112.569,378.529 112.662 C 378.621 112.754,379.354 111.447,380.157 109.757 C 380.959 108.066,381.559 106.626,381.489 106.556 C 381.419 106.485,380.686 107.793,379.861 109.461 M335.200 108.118 C 335.200 108.220,336.047 108.997,337.081 109.845 C 338.116 110.693,338.834 111.178,338.676 110.923 C 338.340 110.379,335.200 107.845,335.200 108.118 M339.750 111.887 C 340.190 112.407,340.412 113.110,340.287 113.587 C 340.170 114.035,340.238 114.300,340.437 114.177 C 341.092 113.772,340.817 112.539,339.900 111.762 L 339.000 111.000 339.750 111.887 M336.692 119.536 C 333.413 124.558,333.032 125.832,334.400 127.200 C 335.246 128.046,338.182 128.275,339.800 127.620 C 340.264 127.433,339.497 127.381,337.977 127.497 C 333.194 127.862,332.778 126.020,336.422 120.600 C 338.748 117.140,340.152 114.800,339.902 114.800 C 339.837 114.800,338.392 116.931,336.692 119.536 M374.281 121.021 C 373.466 122.667,372.809 124.145,372.820 124.307 C 372.831 124.468,373.562 123.186,374.446 121.459 C 375.329 119.731,375.986 118.253,375.906 118.173 C 375.827 118.093,375.095 119.375,374.281 121.021 M349.190 125.463 C 349.422 125.578,349.623 127.346,349.652 129.533 C 349.741 136.083,350.266 140.593,350.289 135.000 C 350.312 129.147,349.934 125.489,349.290 125.361 C 349.010 125.306,348.965 125.351,349.190 125.463 M345.800 126.000 L 345.000 126.344 345.800 126.344 C 346.240 126.344,346.960 126.189,347.400 126.000 L 348.200 125.656 347.400 125.656 C 346.960 125.656,346.240 125.811,345.800 126.000 M342.200 126.800 L 341.400 127.144 342.200 127.144 C 342.640 127.144,343.360 126.989,343.800 126.800 L 344.600 126.456 343.800 126.456 C 343.360 126.456,342.640 126.611,342.200 126.800 M323.800 127.093 C 324.460 127.189,325.360 127.567,325.800 127.933 C 326.594 128.595,326.594 128.593,325.838 127.700 C 325.320 127.088,324.680 126.819,323.838 126.860 L 322.600 126.920 323.800 127.093 M369.082 131.811 C 368.492 133.015,368.094 134.000,368.198 134.000 C 368.467 134.000,370.484 129.951,370.305 129.771 C 370.223 129.689,369.673 130.607,369.082 131.811 M322.800 132.000 C 322.030 132.422,321.513 132.774,321.651 132.783 C 322.065 132.811,324.800 131.605,324.800 131.395 C 324.800 131.046,324.225 131.220,322.800 132.000 M364.220 141.160 C 363.652 142.282,363.264 143.200,363.359 143.200 C 363.651 143.200,365.623 139.490,365.433 139.299 C 365.334 139.201,364.789 140.038,364.220 141.160 M350.467 149.076 C 350.430 152.198,350.535 154.837,350.700 154.939 C 350.865 155.041,350.951 153.117,350.890 150.663 C 350.715 143.580,350.540 142.922,350.467 149.076 M361.040 147.040 C 360.462 148.075,360.060 148.994,360.148 149.082 C 360.236 149.170,360.782 148.395,361.360 147.360 C 361.938 146.325,362.340 145.406,362.252 145.318 C 362.164 145.230,361.618 146.005,361.040 147.040 M357.753 152.492 C 356.076 154.954,355.779 155.568,356.928 154.200 C 358.025 152.894,359.348 150.800,359.076 150.800 C 358.983 150.800,358.387 151.562,357.753 152.492 M354.463 155.895 C 353.688 156.434,353.306 156.467,352.263 156.086 C 351.116 155.667,351.071 155.678,351.776 156.212 C 352.829 157.009,353.730 156.951,354.856 156.013 C 355.997 155.063,355.760 154.991,354.463 155.895 M264.700 242.199 C 265.195 242.964,265.600 243.842,265.600 244.152 C 265.600 244.860,260.144 247.540,255.400 249.163 C 250.356 250.888,250.334 250.884,250.480 248.169 L 250.600 245.938 254.000 244.775 C 255.870 244.136,258.570 243.007,260.000 242.267 C 263.340 240.539,263.622 240.535,264.700 242.199 M220.220 242.739 C 220.429 242.926,222.535 243.846,224.900 244.783 C 229.514 246.612,229.672 246.797,228.948 249.500 C 228.631 250.681,225.056 250.389,223.741 249.074 C 223.590 248.923,223.225 248.800,222.929 248.800 C 221.296 248.800,216.800 246.004,216.800 244.989 C 216.800 243.633,219.346 241.959,220.220 242.739 M247.200 249.005 L 247.200 251.164 245.700 251.482 C 244.875 251.657,241.500 251.800,238.200 251.800 L 232.200 251.800 232.200 249.600 L 232.200 247.400 239.068 247.200 C 242.845 247.090,246.065 246.870,246.224 246.711 C 246.840 246.092,247.200 246.939,247.200 249.005 " stroke="none" fill="#83e344" fill-rule="evenodd"></path><path id="path2" d="M381.899 85.035 C 381.363 85.571,369.655 86.032,348.151 86.365 C 306.444 87.011,307.830 86.577,319.261 95.413 C 331.675 105.009,340.800 112.463,340.800 113.006 C 340.800 113.682,339.233 116.377,336.235 120.854 C 332.425 126.545,333.711 128.611,340.200 127.223 C 341.080 127.035,342.790 126.664,344.000 126.400 C 348.701 125.373,349.411 125.271,349.726 125.576 C 349.905 125.750,350.227 131.991,350.440 139.446 C 350.895 155.365,350.908 155.484,352.248 156.095 C 355.403 157.532,358.622 152.736,370.161 129.400 C 372.881 123.900,376.226 117.060,377.595 114.200 C 382.044 104.906,385.947 97.091,388.382 92.600 C 391.104 87.578,391.194 87.127,389.742 85.781 C 388.716 84.830,382.678 84.255,381.899 85.035 M378.914 89.848 C 379.463 90.396,364.254 100.586,354.200 106.406 C 353.540 106.788,351.800 107.836,350.334 108.734 C 345.980 111.402,346.869 111.720,337.184 104.026 C 332.463 100.275,327.115 96.031,325.300 94.595 C 323.485 93.159,322.000 91.807,322.000 91.592 C 322.000 91.344,326.673 91.203,334.700 91.207 C 351.210 91.217,372.840 90.449,378.233 89.663 C 378.472 89.628,378.778 89.711,378.914 89.848 M375.871 107.636 C 372.706 114.106,369.442 120.840,368.617 122.600 C 365.103 130.096,361.716 136.771,357.202 145.100 C 356.457 146.475,355.720 147.600,355.564 147.600 C 355.193 147.600,354.868 142.561,354.559 131.997 L 354.307 123.394 358.867 118.797 C 361.375 116.269,367.461 109.896,372.391 104.635 C 377.322 99.374,381.417 95.250,381.490 95.471 C 381.564 95.692,379.035 101.166,375.871 107.636 M364.283 106.403 C 362.478 108.980,353.041 118.400,352.265 118.399 C 351.496 118.399,348.780 115.017,349.252 114.647 C 349.333 114.583,350.400 113.968,351.623 113.280 C 352.845 112.592,356.166 110.583,359.001 108.815 C 364.398 105.449,365.211 105.078,364.283 106.403 M345.965 118.479 C 347.486 120.546,347.512 121.118,346.100 121.421 C 345.495 121.551,344.148 121.858,343.107 122.102 C 340.702 122.668,340.442 122.377,341.677 120.507 C 342.224 119.678,342.975 118.505,343.345 117.900 C 344.238 116.441,344.511 116.501,345.965 118.479 M322.244 127.529 C 322.132 127.711,321.300 128.103,320.395 128.402 C 318.597 128.995,318.483 129.734,319.864 131.842 C 320.640 133.027,320.607 133.027,323.379 131.758 C 326.100 130.512,326.921 129.239,325.801 128.002 C 325.070 127.194,322.650 126.872,322.244 127.529 M313.399 131.740 C 309.410 133.597,300.800 139.186,300.800 139.917 C 300.800 140.601,303.614 143.377,303.899 142.974 C 304.567 142.027,312.440 137.183,316.100 135.466 C 317.866 134.638,317.857 134.681,316.702 132.500 C 315.646 130.506,315.915 130.568,313.399 131.740 M295.723 143.900 C 294.662 144.945,292.805 146.964,291.597 148.387 C 290.389 149.809,289.085 151.328,288.700 151.762 C 287.720 152.867,287.816 153.332,289.277 154.542 C 290.978 155.951,291.307 155.892,292.850 153.900 C 293.574 152.965,295.680 150.637,297.529 148.727 L 300.893 145.253 299.966 143.927 C 298.265 141.493,298.169 141.493,295.723 143.900 M284.783 157.300 C 281.131 163.191,278.381 170.148,279.472 170.732 C 280.705 171.391,283.200 171.743,283.200 171.256 C 283.200 170.856,283.809 169.422,285.941 164.800 C 286.397 163.810,287.320 162.057,287.991 160.905 C 289.335 158.596,289.373 158.738,286.856 156.700 C 285.725 155.785,285.721 155.786,284.783 157.300 M277.233 174.500 C 276.836 175.521,276.237 177.756,275.652 180.400 C 274.671 184.829,274.348 187.127,274.469 188.800 L 274.600 190.600 276.400 190.460 C 278.756 190.276,279.200 189.851,279.200 187.782 C 279.200 186.003,279.638 183.543,280.693 179.400 C 281.731 175.322,281.645 174.821,279.800 174.173 C 277.706 173.439,277.642 173.447,277.233 174.500 M304.575 176.775 C 300.847 177.667,295.918 181.733,292.668 186.596 C 290.489 189.856,290.433 190.158,291.900 190.738 C 294.566 191.791,294.947 191.734,295.800 190.147 C 296.240 189.329,296.781 188.466,297.003 188.229 C 297.224 187.993,297.923 187.170,298.555 186.400 C 299.983 184.662,303.284 182.143,305.160 181.359 C 306.932 180.619,307.186 180.211,307.194 178.100 C 307.201 176.258,307.051 176.182,304.575 176.775 M310.340 177.946 C 310.307 178.856,310.262 179.802,310.240 180.048 C 310.218 180.295,310.920 180.790,311.800 181.150 C 315.251 182.559,316.490 184.183,316.563 187.394 L 316.600 189.000 318.664 189.120 C 325.331 189.506,319.126 177.487,312.166 176.533 L 310.400 176.291 310.340 177.946 M313.413 194.206 C 312.559 195.447,310.991 197.349,309.930 198.433 C 307.625 200.787,307.594 201.049,309.402 202.802 L 310.805 204.162 312.626 202.381 C 317.878 197.245,320.434 192.405,317.900 192.395 C 317.185 192.392,316.233 192.290,315.784 192.170 C 315.135 191.995,314.649 192.413,313.413 194.206 M275.700 193.855 C 273.522 194.776,278.442 203.989,282.181 205.990 C 282.824 206.334,283.345 207.023,283.483 207.713 C 283.774 209.169,284.976 209.646,287.923 209.474 L 290.178 209.343 290.778 207.412 C 291.355 205.555,291.345 205.461,290.531 204.921 L 289.686 204.360 290.597 201.880 C 291.099 200.516,291.889 198.448,292.354 197.285 C 293.408 194.651,293.460 194.920,291.751 194.205 C 289.066 193.083,289.183 192.980,286.793 198.600 C 286.606 199.040,286.225 200.075,285.946 200.900 C 285.237 203.000,284.057 202.447,281.217 198.685 C 280.921 198.292,280.373 197.032,280.000 195.885 C 279.314 193.774,277.699 193.011,275.700 193.855 M302.800 203.577 C 300.980 204.579,297.287 205.600,295.486 205.600 C 294.527 205.600,293.600 207.469,293.600 209.401 C 293.600 210.923,300.900 209.760,305.500 207.505 C 308.415 206.077,308.392 206.136,306.681 204.478 C 305.373 203.210,304.032 202.899,302.800 203.577 M282.044 212.861 C 281.839 213.377,281.274 214.880,280.789 216.200 C 280.305 217.520,279.569 219.363,279.154 220.296 C 278.739 221.228,278.405 222.218,278.411 222.496 C 278.421 222.938,281.966 225.046,282.159 224.724 C 283.451 222.575,286.400 214.782,286.400 213.518 C 286.400 213.114,285.890 212.793,284.972 212.621 C 284.186 212.474,283.290 212.256,282.981 212.137 C 282.640 212.006,282.271 212.291,282.044 212.861 M275.846 226.986 C 275.491 227.528,275.200 228.082,275.200 228.216 C 275.200 228.742,271.350 233.534,268.930 236.020 L 266.379 238.641 267.290 240.317 C 268.647 242.817,270.389 241.892,275.041 236.200 C 280.265 229.808,281.101 227.692,278.797 226.694 C 276.734 225.800,276.615 225.812,275.846 226.986 M260.000 242.267 C 258.570 243.007,255.870 244.136,254.000 244.775 L 250.600 245.938 250.480 248.169 C 250.334 250.884,250.356 250.888,255.400 249.163 C 260.144 247.540,265.600 244.860,265.600 244.152 C 265.600 243.214,263.841 240.806,263.200 240.866 C 262.870 240.897,261.430 241.527,260.000 242.267 M217.781 243.458 C 216.569 244.767,216.555 245.241,217.700 246.266 C 218.696 247.156,222.087 248.800,222.929 248.800 C 223.225 248.800,223.590 248.923,223.741 249.074 C 225.056 250.389,228.631 250.681,228.948 249.500 C 229.672 246.797,229.514 246.612,224.900 244.783 C 222.535 243.846,220.429 242.926,220.220 242.739 C 219.554 242.145,218.789 242.370,217.781 243.458 M246.224 246.711 C 246.065 246.870,242.845 247.090,239.068 247.200 L 232.200 247.400 232.200 249.600 L 232.200 251.800 238.200 251.800 C 241.500 251.800,244.875 251.657,245.700 251.482 L 247.200 251.164 247.200 249.005 C 247.200 246.939,246.840 246.092,246.224 246.711 " stroke="none" fill="#090908" fill-rule="evenodd"></path><path id="path3" d="M374.400 90.047 C 368.404 90.612,347.786 91.215,334.700 91.207 C 326.673 91.203,322.000 91.344,322.000 91.592 C 322.000 91.807,323.485 93.159,325.300 94.595 C 327.115 96.031,332.463 100.275,337.184 104.026 C 346.869 111.720,345.980 111.402,350.334 108.734 C 351.800 107.836,353.540 106.788,354.200 106.406 C 359.765 103.184,377.596 91.653,378.681 90.574 C 379.195 90.062,378.947 89.559,378.233 89.663 C 377.995 89.698,376.270 89.871,374.400 90.047 M372.391 104.635 C 367.461 109.896,361.375 116.269,358.867 118.797 L 354.307 123.394 354.559 131.997 C 354.868 142.561,355.193 147.600,355.564 147.600 C 356.128 147.600,363.653 133.188,368.617 122.600 C 369.442 120.840,372.706 114.106,375.871 107.636 C 379.035 101.166,381.564 95.692,381.490 95.471 C 381.417 95.250,377.322 99.374,372.391 104.635 M359.001 108.815 C 356.166 110.583,352.845 112.592,351.623 113.280 C 350.400 113.968,349.333 114.583,349.252 114.647 C 349.170 114.711,349.620 115.581,350.252 116.581 C 352.009 119.363,352.382 119.191,358.426 112.803 C 366.479 104.290,366.501 104.138,359.001 108.815 M343.345 117.900 C 342.975 118.505,342.224 119.678,341.677 120.507 C 340.442 122.377,340.702 122.668,343.107 122.102 C 344.148 121.858,345.495 121.551,346.100 121.421 C 347.512 121.118,347.486 120.546,345.965 118.479 C 344.511 116.501,344.238 116.441,343.345 117.900 " stroke="none" fill="#f77223" fill-rule="evenodd"></path></g></svg>